<mxfile host="app.diagrams.net" modified="2024-05-03T16:15:30.479Z" agent="Mozilla/5.0 (Windows NT 10.0; Win64; x64) AppleWebKit/537.36 (KHTML, like Gecko) Chrome/124.0.0.0 Safari/537.36 Edg/124.0.0.0" etag="m7xhBVGg9CDr4B_7h-YW" version="24.3.1" type="google">
  <diagram name="PÃ¡gina-1" id="NXeV9bxmyf7C4dpraeBW">
    <mxGraphModel grid="1" page="1" gridSize="10" guides="1" tooltips="1" connect="1" arrows="1" fold="1" pageScale="1" pageWidth="827" pageHeight="1169" math="0" shadow="0">
      <root>
        <mxCell id="0" />
        <mxCell id="1" parent="0" />
        <mxCell id="qnohiGIdeI-j8RUa9Zko-3" value="" style="edgeStyle=orthogonalEdgeStyle;rounded=0;orthogonalLoop=1;jettySize=auto;html=1;" edge="1" parent="1" source="qnohiGIdeI-j8RUa9Zko-1" target="qnohiGIdeI-j8RUa9Zko-2">
          <mxGeometry relative="1" as="geometry" />
        </mxCell>
        <mxCell id="qnohiGIdeI-j8RUa9Zko-1" value="INICIO" style="ellipse;whiteSpace=wrap;html=1;" vertex="1" parent="1">
          <mxGeometry x="200" y="20" width="80" height="80" as="geometry" />
        </mxCell>
        <mxCell id="qnohiGIdeI-j8RUa9Zko-5" value="" style="edgeStyle=orthogonalEdgeStyle;rounded=0;orthogonalLoop=1;jettySize=auto;html=1;" edge="1" parent="1" source="qnohiGIdeI-j8RUa9Zko-2" target="qnohiGIdeI-j8RUa9Zko-4">
          <mxGeometry relative="1" as="geometry" />
        </mxCell>
        <mxCell id="qnohiGIdeI-j8RUa9Zko-2" value="INPUT&amp;nbsp;&lt;div&gt;n&lt;/div&gt;" style="shape=parallelogram;perimeter=parallelogramPerimeter;whiteSpace=wrap;html=1;fixedSize=1;" vertex="1" parent="1">
          <mxGeometry x="180" y="120" width="120" height="60" as="geometry" />
        </mxCell>
        <mxCell id="qnohiGIdeI-j8RUa9Zko-7" value="" style="edgeStyle=orthogonalEdgeStyle;rounded=0;orthogonalLoop=1;jettySize=auto;html=1;" edge="1" parent="1" source="qnohiGIdeI-j8RUa9Zko-4" target="qnohiGIdeI-j8RUa9Zko-6">
          <mxGeometry relative="1" as="geometry" />
        </mxCell>
        <mxCell id="qnohiGIdeI-j8RUa9Zko-4" value="S_2&lt;div&gt;esPalindromo = true&lt;/div&gt;&lt;div&gt;i=0&lt;/div&gt;" style="whiteSpace=wrap;html=1;" vertex="1" parent="1">
          <mxGeometry x="180" y="200" width="120" height="60" as="geometry" />
        </mxCell>
        <mxCell id="qnohiGIdeI-j8RUa9Zko-9" value="" style="edgeStyle=orthogonalEdgeStyle;rounded=0;orthogonalLoop=1;jettySize=auto;html=1;" edge="1" parent="1" source="qnohiGIdeI-j8RUa9Zko-6" target="qnohiGIdeI-j8RUa9Zko-8">
          <mxGeometry relative="1" as="geometry" />
        </mxCell>
        <mxCell id="qnohiGIdeI-j8RUa9Zko-20" style="edgeStyle=orthogonalEdgeStyle;rounded=0;orthogonalLoop=1;jettySize=auto;html=1;entryX=0;entryY=0.5;entryDx=0;entryDy=0;" edge="1" parent="1" source="qnohiGIdeI-j8RUa9Zko-6" target="qnohiGIdeI-j8RUa9Zko-22">
          <mxGeometry relative="1" as="geometry">
            <mxPoint x="240" y="570" as="targetPoint" />
            <Array as="points">
              <mxPoint x="160" y="330" />
              <mxPoint x="160" y="580" />
            </Array>
          </mxGeometry>
        </mxCell>
        <mxCell id="qnohiGIdeI-j8RUa9Zko-6" value="s.size()-1 &amp;gt;= i" style="rhombus;whiteSpace=wrap;html=1;" vertex="1" parent="1">
          <mxGeometry x="185" y="290" width="110" height="80" as="geometry" />
        </mxCell>
        <mxCell id="qnohiGIdeI-j8RUa9Zko-13" value="" style="edgeStyle=orthogonalEdgeStyle;rounded=0;orthogonalLoop=1;jettySize=auto;html=1;" edge="1" parent="1" source="qnohiGIdeI-j8RUa9Zko-8" target="qnohiGIdeI-j8RUa9Zko-12">
          <mxGeometry relative="1" as="geometry" />
        </mxCell>
        <mxCell id="qnohiGIdeI-j8RUa9Zko-16" value="" style="edgeStyle=orthogonalEdgeStyle;rounded=0;orthogonalLoop=1;jettySize=auto;html=1;" edge="1" parent="1" source="qnohiGIdeI-j8RUa9Zko-22" target="qnohiGIdeI-j8RUa9Zko-15">
          <mxGeometry relative="1" as="geometry" />
        </mxCell>
        <mxCell id="qnohiGIdeI-j8RUa9Zko-8" value="s[i] !=&#39; &#39;" style="rhombus;whiteSpace=wrap;html=1;" vertex="1" parent="1">
          <mxGeometry x="192.5" y="420" width="95" height="70" as="geometry" />
        </mxCell>
        <mxCell id="qnohiGIdeI-j8RUa9Zko-10" value="SI" style="text;html=1;align=center;verticalAlign=middle;resizable=0;points=[];autosize=1;strokeColor=none;fillColor=none;" vertex="1" parent="1">
          <mxGeometry x="245" y="378" width="30" height="30" as="geometry" />
        </mxCell>
        <mxCell id="qnohiGIdeI-j8RUa9Zko-11" value="SI" style="text;html=1;align=center;verticalAlign=middle;resizable=0;points=[];autosize=1;strokeColor=none;fillColor=none;" vertex="1" parent="1">
          <mxGeometry x="275" y="418" width="30" height="30" as="geometry" />
        </mxCell>
        <mxCell id="qnohiGIdeI-j8RUa9Zko-17" style="edgeStyle=orthogonalEdgeStyle;rounded=0;orthogonalLoop=1;jettySize=auto;html=1;entryX=1;entryY=0.5;entryDx=0;entryDy=0;" edge="1" parent="1" source="qnohiGIdeI-j8RUa9Zko-12" target="qnohiGIdeI-j8RUa9Zko-6">
          <mxGeometry relative="1" as="geometry">
            <mxPoint x="390" y="320" as="targetPoint" />
            <Array as="points">
              <mxPoint x="390" y="330" />
            </Array>
          </mxGeometry>
        </mxCell>
        <mxCell id="qnohiGIdeI-j8RUa9Zko-12" value="s_2 = s_2 + s[i]" style="whiteSpace=wrap;html=1;" vertex="1" parent="1">
          <mxGeometry x="330" y="425" width="120" height="60" as="geometry" />
        </mxCell>
        <mxCell id="qnohiGIdeI-j8RUa9Zko-14" value="NO" style="text;html=1;align=center;verticalAlign=middle;resizable=0;points=[];autosize=1;strokeColor=none;fillColor=none;" vertex="1" parent="1">
          <mxGeometry x="254" y="490" width="40" height="30" as="geometry" />
        </mxCell>
        <mxCell id="qnohiGIdeI-j8RUa9Zko-25" value="" style="edgeStyle=orthogonalEdgeStyle;rounded=0;orthogonalLoop=1;jettySize=auto;html=1;" edge="1" parent="1" source="qnohiGIdeI-j8RUa9Zko-15" target="qnohiGIdeI-j8RUa9Zko-24">
          <mxGeometry relative="1" as="geometry" />
        </mxCell>
        <mxCell id="qnohiGIdeI-j8RUa9Zko-32" value="" style="edgeStyle=orthogonalEdgeStyle;rounded=0;orthogonalLoop=1;jettySize=auto;html=1;" edge="1" parent="1" source="qnohiGIdeI-j8RUa9Zko-15" target="qnohiGIdeI-j8RUa9Zko-31">
          <mxGeometry relative="1" as="geometry" />
        </mxCell>
        <mxCell id="qnohiGIdeI-j8RUa9Zko-15" value="i &amp;lt; n/2" style="rhombus;whiteSpace=wrap;html=1;" vertex="1" parent="1">
          <mxGeometry x="192.5" y="630" width="95" height="70" as="geometry" />
        </mxCell>
        <mxCell id="qnohiGIdeI-j8RUa9Zko-19" value="++i" style="whiteSpace=wrap;html=1;" vertex="1" parent="1">
          <mxGeometry x="360" y="315" width="60" height="30" as="geometry" />
        </mxCell>
        <mxCell id="qnohiGIdeI-j8RUa9Zko-21" value="NO" style="text;html=1;align=center;verticalAlign=middle;resizable=0;points=[];autosize=1;strokeColor=none;fillColor=none;" vertex="1" parent="1">
          <mxGeometry x="150" y="298" width="40" height="30" as="geometry" />
        </mxCell>
        <mxCell id="qnohiGIdeI-j8RUa9Zko-23" value="" style="edgeStyle=orthogonalEdgeStyle;rounded=0;orthogonalLoop=1;jettySize=auto;html=1;" edge="1" parent="1" source="qnohiGIdeI-j8RUa9Zko-8" target="qnohiGIdeI-j8RUa9Zko-22">
          <mxGeometry relative="1" as="geometry">
            <mxPoint x="240" y="490" as="sourcePoint" />
            <mxPoint x="240" y="630" as="targetPoint" />
          </mxGeometry>
        </mxCell>
        <mxCell id="qnohiGIdeI-j8RUa9Zko-22" value="i = 0" style="whiteSpace=wrap;html=1;" vertex="1" parent="1">
          <mxGeometry x="205" y="560" width="70" height="40" as="geometry" />
        </mxCell>
        <mxCell id="qnohiGIdeI-j8RUa9Zko-29" value="" style="edgeStyle=orthogonalEdgeStyle;rounded=0;orthogonalLoop=1;jettySize=auto;html=1;" edge="1" parent="1" source="qnohiGIdeI-j8RUa9Zko-24" target="qnohiGIdeI-j8RUa9Zko-28">
          <mxGeometry relative="1" as="geometry" />
        </mxCell>
        <mxCell id="qnohiGIdeI-j8RUa9Zko-46" value="" style="edgeStyle=orthogonalEdgeStyle;rounded=0;orthogonalLoop=1;jettySize=auto;html=1;" edge="1" parent="1" source="qnohiGIdeI-j8RUa9Zko-24" target="qnohiGIdeI-j8RUa9Zko-45">
          <mxGeometry relative="1" as="geometry" />
        </mxCell>
        <mxCell id="qnohiGIdeI-j8RUa9Zko-24" value="s_2[i] != s_2[n - 1 - i]" style="rhombus;whiteSpace=wrap;html=1;" vertex="1" parent="1">
          <mxGeometry x="315" y="625" width="155" height="80" as="geometry" />
        </mxCell>
        <mxCell id="qnohiGIdeI-j8RUa9Zko-26" value="SI" style="text;html=1;align=center;verticalAlign=middle;resizable=0;points=[];autosize=1;strokeColor=none;fillColor=none;" vertex="1" parent="1">
          <mxGeometry x="285" y="628" width="30" height="30" as="geometry" />
        </mxCell>
        <mxCell id="qnohiGIdeI-j8RUa9Zko-27" value="SI" style="text;html=1;align=center;verticalAlign=middle;resizable=0;points=[];autosize=1;strokeColor=none;fillColor=none;" vertex="1" parent="1">
          <mxGeometry x="465" y="628" width="30" height="30" as="geometry" />
        </mxCell>
        <mxCell id="qnohiGIdeI-j8RUa9Zko-28" value="esPalindromo = false" style="whiteSpace=wrap;html=1;" vertex="1" parent="1">
          <mxGeometry x="495" y="642.5" width="130" height="45" as="geometry" />
        </mxCell>
        <mxCell id="qnohiGIdeI-j8RUa9Zko-30" value="NO" style="text;html=1;align=center;verticalAlign=middle;resizable=0;points=[];autosize=1;strokeColor=none;fillColor=none;" vertex="1" parent="1">
          <mxGeometry x="200" y="700" width="40" height="30" as="geometry" />
        </mxCell>
        <mxCell id="qnohiGIdeI-j8RUa9Zko-35" value="" style="edgeStyle=orthogonalEdgeStyle;rounded=0;orthogonalLoop=1;jettySize=auto;html=1;" edge="1" parent="1" source="qnohiGIdeI-j8RUa9Zko-31" target="qnohiGIdeI-j8RUa9Zko-34">
          <mxGeometry relative="1" as="geometry" />
        </mxCell>
        <mxCell id="qnohiGIdeI-j8RUa9Zko-39" value="" style="edgeStyle=orthogonalEdgeStyle;rounded=0;orthogonalLoop=1;jettySize=auto;html=1;" edge="1" parent="1" source="qnohiGIdeI-j8RUa9Zko-31" target="qnohiGIdeI-j8RUa9Zko-38">
          <mxGeometry relative="1" as="geometry" />
        </mxCell>
        <mxCell id="qnohiGIdeI-j8RUa9Zko-31" value="esPalindromo" style="rhombus;whiteSpace=wrap;html=1;" vertex="1" parent="1">
          <mxGeometry x="186.5" y="760" width="107.5" height="70" as="geometry" />
        </mxCell>
        <mxCell id="qnohiGIdeI-j8RUa9Zko-33" value="SI" style="text;html=1;align=center;verticalAlign=middle;resizable=0;points=[];autosize=1;strokeColor=none;fillColor=none;" vertex="1" parent="1">
          <mxGeometry x="295" y="758" width="30" height="30" as="geometry" />
        </mxCell>
        <mxCell id="qnohiGIdeI-j8RUa9Zko-37" value="" style="edgeStyle=orthogonalEdgeStyle;rounded=0;orthogonalLoop=1;jettySize=auto;html=1;" edge="1" parent="1" source="qnohiGIdeI-j8RUa9Zko-34" target="qnohiGIdeI-j8RUa9Zko-36">
          <mxGeometry relative="1" as="geometry" />
        </mxCell>
        <mxCell id="qnohiGIdeI-j8RUa9Zko-34" value="&lt;div&gt;&lt;span style=&quot;background-color: initial;&quot;&gt;OUTPUT&lt;/span&gt;&lt;/div&gt;&lt;div&gt;&lt;span style=&quot;background-color: initial;&quot;&gt;&quot;YES&quot;&lt;/span&gt;&lt;br&gt;&lt;/div&gt;" style="shape=parallelogram;perimeter=parallelogramPerimeter;whiteSpace=wrap;html=1;fixedSize=1;" vertex="1" parent="1">
          <mxGeometry x="345" y="765" width="120" height="60" as="geometry" />
        </mxCell>
        <mxCell id="qnohiGIdeI-j8RUa9Zko-36" value="FIN" style="ellipse;whiteSpace=wrap;html=1;" vertex="1" parent="1">
          <mxGeometry x="495" y="755" width="80" height="80" as="geometry" />
        </mxCell>
        <mxCell id="qnohiGIdeI-j8RUa9Zko-41" value="" style="edgeStyle=orthogonalEdgeStyle;rounded=0;orthogonalLoop=1;jettySize=auto;html=1;" edge="1" parent="1" source="qnohiGIdeI-j8RUa9Zko-38" target="qnohiGIdeI-j8RUa9Zko-40">
          <mxGeometry relative="1" as="geometry" />
        </mxCell>
        <mxCell id="qnohiGIdeI-j8RUa9Zko-38" value="OUTPUT&lt;div&gt;&quot;NO&quot;&lt;/div&gt;" style="shape=parallelogram;perimeter=parallelogramPerimeter;whiteSpace=wrap;html=1;fixedSize=1;" vertex="1" parent="1">
          <mxGeometry x="180.25" y="870" width="120" height="60" as="geometry" />
        </mxCell>
        <mxCell id="qnohiGIdeI-j8RUa9Zko-40" value="FIN" style="ellipse;whiteSpace=wrap;html=1;" vertex="1" parent="1">
          <mxGeometry x="200.25" y="960" width="80" height="80" as="geometry" />
        </mxCell>
        <mxCell id="qnohiGIdeI-j8RUa9Zko-42" value="NO" style="text;html=1;align=center;verticalAlign=middle;resizable=0;points=[];autosize=1;strokeColor=none;fillColor=none;" vertex="1" parent="1">
          <mxGeometry x="250" y="828" width="40" height="30" as="geometry" />
        </mxCell>
        <mxCell id="qnohiGIdeI-j8RUa9Zko-44" value="" style="endArrow=none;html=1;rounded=0;" edge="1" parent="1">
          <mxGeometry width="50" height="50" relative="1" as="geometry">
            <mxPoint x="240" y="738" as="sourcePoint" />
            <mxPoint x="560" y="687.5" as="targetPoint" />
            <Array as="points">
              <mxPoint x="560" y="740" />
            </Array>
          </mxGeometry>
        </mxCell>
        <mxCell id="qnohiGIdeI-j8RUa9Zko-45" value="++i" style="whiteSpace=wrap;html=1;" vertex="1" parent="1">
          <mxGeometry x="363.12" y="570" width="58.75" height="30" as="geometry" />
        </mxCell>
        <mxCell id="qnohiGIdeI-j8RUa9Zko-47" value="NO" style="text;html=1;align=center;verticalAlign=middle;resizable=0;points=[];autosize=1;strokeColor=none;fillColor=none;" vertex="1" parent="1">
          <mxGeometry x="400" y="600" width="40" height="30" as="geometry" />
        </mxCell>
        <mxCell id="qnohiGIdeI-j8RUa9Zko-49" value="" style="endArrow=none;html=1;rounded=0;" edge="1" parent="1">
          <mxGeometry width="50" height="50" relative="1" as="geometry">
            <mxPoint x="240" y="610" as="sourcePoint" />
            <mxPoint x="363.12" y="585" as="targetPoint" />
            <Array as="points">
              <mxPoint x="320" y="610" />
              <mxPoint x="320" y="585" />
            </Array>
          </mxGeometry>
        </mxCell>
      </root>
    </mxGraphModel>
  </diagram>
</mxfile>
